<?xml version="1.0" encoding="UTF-8" standalone="no" ?>
<!DOCTYPE svg PUBLIC "-//W3C//DTD SVG 1.1//EN" "http://www.w3.org/Graphics/SVG/1.1/DTD/svg11.dtd">
<svg xmlns="http://www.w3.org/2000/svg" xmlns:xlink="http://www.w3.org/1999/xlink" version="1.1" width="1080" height="1080" viewBox="0 0 1080 1080" xml:space="preserve">
<desc>Created with Fabric.js 5.2.4</desc>
<defs>
</defs>
<rect x="0" y="0" width="100%" height="100%" fill="transparent"></rect>
<g transform="matrix(1 0 0 1 540 540)" id="a0b37073-c743-4b8b-a560-eade37f1006a"  >
<rect style="stroke: none; stroke-width: 1; stroke-dasharray: none; stroke-linecap: butt; stroke-dashoffset: 0; stroke-linejoin: miter; stroke-miterlimit: 4; fill: rgb(255,255,255); fill-rule: nonzero; opacity: 1; visibility: hidden;" vector-effect="non-scaling-stroke"  x="-540" y="-540" rx="0" ry="0" width="1080" height="1080" />
</g>
<g transform="matrix(1 0 0 1 540 540)" id="92cf4885-3e3e-4e9a-b7b5-1af741bc862b"  >
</g>
<g transform="matrix(1.4 0 0 1.4 548.95 550.35)" id="815b22f5-622e-4973-9a75-80610fa30f39"  >
<path style="stroke: rgb(0,0,0); stroke-width: 0; stroke-dasharray: none; stroke-linecap: butt; stroke-dashoffset: 0; stroke-linejoin: miter; stroke-miterlimit: 4; fill: rgb(143,143,143); fill-rule: nonzero; opacity: 1;" vector-effect="non-scaling-stroke"  transform=" translate(-256, -255.99)" d="M 188.8 20.38 C 183.5 47.230000000000004 193.4 76.12 222.9 106.89999999999999 C 234.1 99.60999999999999 254.5 95.96 272.9 98.74 C 226.89999999999998 76.42999999999999 206.39999999999998 51.60999999999999 188.79999999999998 20.379999999999995 z M 29.19 26.62 C 43.56 73.08 81.09 128.8 129.6 168.3 C 93.51 166 49.93 153.1 18.76 143 C 43.72 178.2 82.93 195.9 122.10000000000001 209.3 C 97.13 227 66.99 245 18.66 248 C 73.3 267.2 126.2 256.9 150 248.7 C 132.1 283.59999999999997 49.28 314.9 27.689999999999998 325.7 C 80.94999999999999 329.9 149.39999999999998 314.7 194.7 292.8 C 204.7 317.40000000000003 193.1 346 184.6 370.6 C 182.7 375.1 180.79999999999998 379.5 178.9 383.90000000000003 C 184 380.40000000000003 189 376.90000000000003 193.8 373.3 C 217.4 357.1 241.60000000000002 341.40000000000003 253.3 314.5 C 279.40000000000003 345.7 316 376.6 360.3 399.9 C 377.7 422 388.6 448.9 394.5 473.7 C 402.8 454.59999999999997 408.3 433.5 404.2 413.4 C 428.7 409.79999999999995 439.8 383.7 439.7 359 C 427.09999999999997 365.2 424.59999999999997 365.3 408.5 367.2 C 408.5 357.09999999999997 409.1 354.7 405.5 338.5 C 395.2 346.9 384.5 349.7 374.7 350.3 C 376.8 342.7 377.7 330.8 378.4 323 C 365.4 330.1 359.2 332.7 348.29999999999995 333.8 C 347.9 322.90000000000003 348.19999999999993 313.8 344.19999999999993 303.40000000000003 C 314.5999999999999 322.40000000000003 295.5999999999999 304.90000000000003 276.19999999999993 282.1 C 295.99999999999994 265.1 372.5999999999999 260.3 371.29999999999995 289.20000000000005 C 385.29999999999995 281.90000000000003 390.09999999999997 278.00000000000006 394.9 273.30000000000007 C 404 281.80000000000007 408.29999999999995 294.20000000000005 410 304.70000000000005 C 419.3 295.30000000000007 420.3 294.20000000000005 427.1 280.90000000000003 C 432.8 291.00000000000006 435.90000000000003 297.90000000000003 437.8 311.50000000000006 C 446.3 305.30000000000007 453.2 298.40000000000003 457.6 290.1000000000001 C 465.1 305.6000000000001 465.90000000000003 306.1000000000001 470 323.1000000000001 C 487.8 310.00000000000006 491.8 291.9000000000001 492.8 275.50000000000006 C 494.8 242.50000000000006 492.5 167.30000000000007 461.8 132.60000000000005 C 463.5 168.90000000000003 448.7 202.60000000000005 428 213.30000000000007 C 415.4 218.20000000000007 331.5 138.70000000000007 290.4 120.00000000000007 C 266.9 109.80000000000007 242.29999999999998 127.10000000000007 222.59999999999997 129.30000000000007 C 147 106.2 83.57 70.94 29.19 26.62 z M 296.1 152.8 C 309.40000000000003 173.70000000000002 328.3 189.70000000000002 356.20000000000005 207.8 C 336.80000000000007 210.70000000000002 290.40000000000003 201.10000000000002 278.50000000000006 183.8 C 273.00000000000006 175.9 285.6000000000001 162.5 296.1000000000001 152.8 z M 180.6 319.1 C 166.2 325.3 151.4 330 136.8 333.40000000000003 C 134.4 337.00000000000006 132.20000000000002 340.50000000000006 130.10000000000002 343.90000000000003 C 144.90000000000003 349.20000000000005 161.60000000000002 350.90000000000003 174.20000000000002 346.70000000000005 C 177.50000000000003 336.90000000000003 179.70000000000002 327.40000000000003 180.60000000000002 319.1 z M 112.6 338.20000000000005 L 102.39999999999999 339.70000000000005 C 70.58999999999999 376.30000000000007 40.49999999999999 442.90000000000003 54.15999999999999 491.6 L 90.28999999999999 491.6 C 79.16999999999999 453.90000000000003 73.75999999999999 404.5 112.6 338.20000000000005 z M 121.1 359.70000000000005 C 115.19999999999999 371.1 110.69999999999999 381.80000000000007 107.3 391.80000000000007 C 120.2 398.50000000000006 136.4 400.70000000000005 152.1 400.00000000000006 C 156.7 389.50000000000006 161.9 378.20000000000005 166.7 366.70000000000005 C 151.29999999999998 368.50000000000006 135.29999999999998 365.30000000000007 121.1 359.70000000000005 z M 232.5 366.30000000000007 C 220.5 376.80000000000007 207.3 386.6000000000001 193.6 395.9000000000001 C 200.6 429.9000000000001 227 459.30000000000007 267.5 491.6000000000001 L 350.8 491.6000000000001 C 293.6 459.80000000000007 256.20000000000005 418.30000000000007 232.5 366.30000000000007 z M 102.5 409.50000000000006 C 100 421.30000000000007 99.2 432.20000000000005 99.5 442.40000000000003 C 136.8 456.6 162 455.90000000000003 197 446.50000000000006 C 189.8 436.20000000000005 184 425.50000000000006 180.1 414.20000000000005 C 147.39999999999998 423.6 124.69999999999999 419.90000000000003 102.5 409.50000000000006 z M 209.1 461.90000000000003 C 171 472.8 140.3 475.1 101.6 462.20000000000005 C 103.39999999999999 472.6 106.1 482.30000000000007 109.1 491.6 L 239.2 491.6 C 227.89999999999998 481.8 217.79999999999998 472 209.1 461.90000000000003 z" stroke-linecap="round" />
</g>
<g transform="matrix(0.52 0 0 0.52 620.15 453.3)" id="346b8f95-d5d6-413a-b38d-777f105f6f14"  >
<circle style="stroke: rgb(228,1,1); stroke-width: 0; stroke-dasharray: none; stroke-linecap: butt; stroke-dashoffset: 0; stroke-linejoin: miter; stroke-miterlimit: 4; fill: rgb(255,0,0); fill-rule: nonzero; opacity: 1;" vector-effect="non-scaling-stroke"  cx="0" cy="0" r="35" />
</g>
</svg>