<?xml version="1.0" encoding="iso-8859-1"?>
<!-- Uploaded to: SVG Repo, www.svgrepo.com, Generator: SVG Repo Mixer Tools -->
<!DOCTYPE svg PUBLIC "-//W3C//DTD SVG 1.1//EN" "http://www.w3.org/Graphics/SVG/1.1/DTD/svg11.dtd">
<svg fill="#000000" version="1.1" id="Capa_1" xmlns="http://www.w3.org/2000/svg" xmlns:xlink="http://www.w3.org/1999/xlink" 
	 width="800px" height="800px" viewBox="0 0 47 47" xml:space="preserve">
<g>
	<g>
		<path d="M18.066,8.636c0-3,2.434-5.442,5.431-5.442c2.999,0,5.433,2.442,5.433,5.442v4.236h3.197V8.636
			c0-4.769-3.871-8.636-8.63-8.636c-4.757,0-8.629,3.868-8.629,8.636v4.236h3.198V8.636z"/>
		<path d="M37.916,28.675L35.812,11.87l-8.11,4.201H23.5h-4.202l-8.11-4.201L9.084,28.675l-4.201,5.722l10.214,6.299L20.54,47h5.921
			l5.441-6.305l10.215-6.299L37.916,28.675z M18.277,31.167c-2.2,0-5.224-3.594-5.224-3.594s1.783-1.112,3.982-1.112
			c2.199,0,3.982,1.053,3.982,2.352C21.018,30.114,20.476,31.167,18.277,31.167z M28.723,31.167c-2.199,0-2.74-1.053-2.74-2.354
			c0-1.299,1.783-2.352,3.981-2.352s3.981,1.112,3.981,1.112S30.923,31.167,28.723,31.167z"/>
	</g>
</g>
</svg>