<?xml version="1.0" encoding="iso-8859-1"?>
<!-- Uploaded to: SVG Repo, www.svgrepo.com, Generator: SVG Repo Mixer Tools -->
<svg version="1.1" id="Layer_1" xmlns="http://www.w3.org/2000/svg" xmlns:xlink="http://www.w3.org/1999/xlink" 
	 viewBox="0 0 512 512" xml:space="preserve">
<g transform="translate(1 1)">
	<g>
		<path style="fill:#FFE100;" d="M96.944,272.067c-1.707,0-2.56,0-4.267-0.853L32.944,237.08c-4.267-2.56-5.12-7.68-3.413-11.947
			c2.56-4.267,7.68-5.12,11.947-3.413l57.173,32.427l39.253-7.68c4.267-0.853,9.387,1.707,10.24,6.827
			c0.853,5.12-1.707,9.387-6.827,10.24l-42.667,8.533C97.797,272.067,97.797,272.067,96.944,272.067z"/>
		<path style="fill:#FFE100;" d="M173.744,203.8c-0.853,0-2.56,0-3.413-0.853l-59.733-25.6c-3.413-0.853-5.12-4.267-5.12-7.68V75.8
			h-51.2c-5.12,0-8.533-3.413-8.533-8.533s3.413-8.533,8.533-8.533h59.733c5.12,0,8.533,3.413,8.533,8.533v96.427l54.613,23.04
			c4.267,1.707,5.973,6.827,4.267,11.093C180.571,202.093,177.157,203.8,173.744,203.8z"/>
		<path style="fill:#FFE100;" d="M96.944,511c-1.707,0-2.56,0-4.267-0.853c-4.267-2.56-5.12-7.68-3.413-11.947l31.573-56.32
			l-40.107-89.6c-1.707-3.413-0.853-7.68,2.56-10.24l51.2-42.667c3.413-3.413,9.387-2.56,11.947,0.853
			c3.413,3.413,2.56,9.387-0.853,11.947l-46.08,38.4l40.107,87.893c0.853,2.56,0.853,5.12,0,7.68l-34.133,59.733
			C102.917,509.293,99.504,511,96.944,511z"/>
		<path style="fill:#FFE100;" d="M421.211,511c-2.56,0-5.973-1.707-7.68-4.267L379.397,447c-1.707-2.56-1.707-5.12,0-7.68
			l40.107-87.893l-46.08-38.4c-3.413-3.413-4.267-8.533-0.853-11.947c3.413-3.413,8.533-4.267,11.947-0.853l51.2,42.667
			c2.56,2.56,4.267,6.827,2.56,10.24l-40.96,89.6l31.573,56.32c2.56,4.267,0.853,9.387-3.413,11.947
			C423.771,511,422.917,511,421.211,511z"/>
		<path style="fill:#FFE100;" d="M421.211,272.067c-0.853,0-0.853,0-1.707,0l-42.667-8.533c-4.267-0.853-7.68-5.12-6.827-10.24
			c0.853-4.267,5.12-7.68,10.24-6.827l39.253,7.68l57.173-32.427c4.267-2.56,9.387-0.853,11.947,3.413
			c2.56,4.267,0.853,9.387-3.413,11.947l-59.733,34.133C423.771,272.067,422.917,272.067,421.211,272.067z"/>
		<path style="fill:#FFE100;" d="M344.411,203.8c-3.413,0-6.827-1.707-7.68-5.12c-1.707-4.267,0-9.387,4.267-11.093l54.613-23.04
			v-97.28c0-5.12,3.413-8.533,8.533-8.533h59.733c5.12,0,8.533,3.413,8.533,8.533s-3.413,8.533-8.533,8.533h-51.2v93.867
			c0,3.413-1.707,6.827-5.12,7.68l-59.733,25.6C346.971,203.8,345.264,203.8,344.411,203.8z"/>
		<path style="fill:#FFE100;" d="M344.411,237.933H156.677l0,0c0-52.053,41.813-93.867,93.867-93.867
			S344.411,185.88,344.411,237.933L344.411,237.933z"/>
	</g>
	<path style="fill:#FFA800;" d="M254.811,144.067c-4.267,0-8.533,0-12.8,0.853c46.08,5.973,81.067,45.227,81.067,93.013h25.6
		C348.677,185.88,306.864,144.067,254.811,144.067"/>
	<path style="fill:#FFFFFF;" d="M250.544,144.067c4.267,0,8.533,0,12.8,0.853c-46.08,5.973-81.067,45.227-81.067,93.013h-25.6
		C156.677,185.88,198.491,144.067,250.544,144.067"/>
	<g>
		<path style="fill:#FFE100;" d="M313.691,101.4H187.397c-7.68,0-13.653-5.973-13.653-13.653V24.6
			c0-9.387,7.68-17.067,17.067-17.067s17.067,7.68,17.067,17.067v42.667h85.333V24.6c0-9.387,7.68-17.067,17.067-17.067
			s17.067,7.68,17.067,17.067v63.147C327.344,95.427,321.371,101.4,313.691,101.4"/>
		<polygon style="fill:#FFE100;" points="224.944,144.067 276.144,144.067 276.144,101.4 224.944,101.4 		"/>
		<path style="fill:#FFE100;" d="M250.544,485.4L250.544,485.4c-65.707,0-119.467-53.76-119.467-119.467v-128h238.933v128
			C370.011,431.64,316.251,485.4,250.544,485.4"/>
	</g>
	<path style="fill:#FFA800;" d="M344.411,237.933v128c0,61.44-46.933,112.64-106.667,118.613c4.267,0.853,8.533,0.853,12.8,0.853
		c65.707,0,119.467-53.76,119.467-119.467v-128H344.411z"/>
	<path style="fill:#FFFFFF;" d="M156.677,237.933v128c0,61.44,46.933,112.64,106.667,118.613c-4.267,0.853-8.533,0.853-12.8,0.853
		c-65.707,0-119.467-53.76-119.467-119.467v-128H156.677z"/>
	<path d="M250.544,493.933c-70.827,0-128-57.173-128-128V229.4h256v136.533C378.544,436.76,321.371,493.933,250.544,493.933z
		 M139.611,246.467v119.467c0,61.44,49.493,110.933,110.933,110.933s110.933-49.493,110.933-110.933V246.467H139.611z"/>
	<path d="M352.944,246.467h-204.8v-8.533c0-56.32,46.08-102.4,102.4-102.4s102.4,46.08,102.4,102.4V246.467z M165.211,229.4h170.667
		c-4.267-42.667-40.96-76.8-85.333-76.8S170.331,186.733,165.211,229.4z"/>
	<path d="M88.411,272.067c-1.707,0-2.56,0-4.267-0.853L24.411,237.08c-4.267-2.56-5.12-7.68-3.413-11.947
		c2.56-4.267,7.68-5.12,11.947-3.413l57.173,32.427l39.253-7.68c4.267-0.853,9.387,1.707,10.24,6.827
		c0.853,4.267-1.707,9.387-6.827,10.24l-42.667,8.533C89.264,272.067,89.264,272.067,88.411,272.067z"/>
	<path d="M165.211,203.8c-0.853,0-2.56,0-3.413-0.853l-59.733-25.6c-3.413-0.853-5.12-4.267-5.12-7.68V75.8h-51.2
		c-5.12,0-8.533-3.413-8.533-8.533s3.413-8.533,8.533-8.533h59.733c5.12,0,8.533,3.413,8.533,8.533v96.427l54.613,23.04
		c4.267,1.707,5.973,6.827,4.267,11.093C172.037,202.093,168.624,203.8,165.211,203.8z"/>
	<path d="M88.411,511c-1.707,0-2.56,0-4.267-0.853c-4.267-2.56-5.12-7.68-3.413-11.947l31.573-56.32l-40.107-89.6
		c-1.707-3.413-0.853-7.68,2.56-10.24l51.2-42.667c3.413-3.413,9.387-2.56,11.947,0.853c3.413,3.413,2.56,9.387-0.853,11.947
		l-46.08,38.4l40.107,87.893c0.853,2.56,0.853,5.12,0,7.68L96.944,505.88C94.384,509.293,90.971,511,88.411,511z"/>
	<path d="M412.677,511c-2.56,0-5.973-1.707-7.68-4.267L370.864,447c-1.707-2.56-1.707-5.12,0-7.68l40.107-87.893l-46.08-38.4
		c-3.413-3.413-4.267-8.533-0.853-11.947c3.413-3.413,8.533-4.267,11.947-0.853l51.2,42.667c2.56,2.56,4.267,6.827,2.56,10.24
		l-40.96,89.6l31.573,56.32c2.56,4.267,0.853,9.387-3.413,11.947C415.237,511,414.384,511,412.677,511z"/>
	<path d="M412.677,272.067c-0.853,0-0.853,0-1.707,0l-42.667-8.533c-4.267-0.853-7.68-5.12-6.827-10.24
		c0.853-4.267,5.12-7.68,10.24-6.827l39.253,7.68l57.173-32.427c4.267-2.56,9.387-0.853,11.947,3.413s0.853,9.387-3.413,11.947
		l-59.733,34.133C415.237,272.067,414.384,272.067,412.677,272.067z"/>
	<rect x="165.211" y="237.933" width="17.067" height="221.867"/>
	<rect x="216.411" y="237.933" width="17.067" height="238.933"/>
	<rect x="267.611" y="237.933" width="17.067" height="238.933"/>
	<rect x="318.811" y="237.933" width="17.067" height="221.867"/>
	<path d="M313.691,109.933H187.397c-11.947,0-22.187-10.24-22.187-22.187V24.6c0-14.507,11.093-25.6,25.6-25.6
		s25.6,11.093,25.6,25.6v34.133h68.267V24.6c0-14.507,11.093-25.6,25.6-25.6c14.507,0,25.6,11.093,25.6,25.6v63.147
		C335.877,99.693,325.637,109.933,313.691,109.933z M190.811,16.067c-5.12,0-8.533,3.413-8.533,8.533v63.147
		c0,2.56,2.56,5.12,5.12,5.12h126.293c2.56,0,5.12-2.56,5.12-5.12V24.6c0-5.12-3.413-8.533-8.533-8.533
		c-5.12,0-8.533,3.413-8.533,8.533v51.2h-102.4V24.6C199.344,19.48,195.931,16.067,190.811,16.067z"/>
	<path d="M284.677,152.6h-68.267V92.867h68.267V152.6z M233.477,135.533h34.133v-25.6h-34.133V135.533z"/>
	<path d="M335.877,203.8c-3.413,0-6.827-1.707-7.68-5.12c-1.707-4.267,0-9.387,4.267-11.093l54.613-23.04v-97.28
		c0-5.12,3.413-8.533,8.533-8.533h59.733c5.12,0,8.533,3.413,8.533,8.533s-3.413,8.533-8.533,8.533h-51.2v93.867
		c0,3.413-1.707,6.827-5.12,7.68l-59.733,25.6C338.437,203.8,336.731,203.8,335.877,203.8z"/>
</g>
</svg>