<?xml version="1.0" encoding="iso-8859-1"?>
<!-- Uploaded to: SVG Repo, www.svgrepo.com, Generator: SVG Repo Mixer Tools -->
<svg height="800px" width="800px" version="1.1" id="Layer_1" xmlns="http://www.w3.org/2000/svg" xmlns:xlink="http://www.w3.org/1999/xlink" 
	 viewBox="0 0 512 512" xml:space="preserve">
<path style="fill:#BCB6B8;" d="M256,0C114.615,0,0,114.615,0,256s114.615,256,256,256s256-114.615,256-256S397.385,0,256,0z
	 M256,318.453c-34.492,0-62.453-27.961-62.453-62.453s27.961-62.453,62.453-62.453s62.453,27.961,62.453,62.453
	S290.492,318.453,256,318.453z"/>
<path style="fill:#EBEAEA;" d="M256,28.132C130.152,28.132,28.132,130.152,28.132,256S130.152,483.868,256,483.868
	S483.868,381.849,483.868,256S381.849,28.132,256,28.132z M256,307.2c-28.277,0-51.2-22.923-51.2-51.2
	c0-28.277,22.923-51.2,51.2-51.2c28.277,0,51.2,22.923,51.2,51.2C307.2,284.277,284.277,307.2,256,307.2z"/>
<g>
	<path style="fill:#8C8484;" d="M84.634,174.074c-4.44,0-8.16-3.468-8.418-7.957c-0.267-4.653,3.29-8.642,7.943-8.909l0.663-0.038
		l-0.299-0.593c-2.095-4.164-0.42-9.237,3.744-11.333c4.162-2.098,9.236-0.421,11.334,3.743l6.081,12.079
		c1.278,2.54,1.193,5.552-0.23,8.015c-1.421,2.462-3.987,4.043-6.826,4.206l-13.501,0.773
		C84.96,174.07,84.797,174.074,84.634,174.074z"/>
	<path style="fill:#8C8484;" d="M263.42,458.022h-14.84c-4.661,0-8.44-3.779-8.44-8.44s3.779-8.44,8.44-8.44h14.84
		c4.661,0,8.44,3.779,8.44,8.44S268.081,458.022,263.42,458.022z"/>
	<path style="fill:#8C8484;" d="M427.366,174.074c-0.163,0-0.326-0.005-0.491-0.013l-13.501-0.773
		c-2.839-0.163-5.405-1.743-6.826-4.206c-1.422-2.462-1.508-5.476-0.23-8.015l6.081-12.079c2.096-4.162,7.169-5.84,11.334-3.743
		c4.164,2.095,5.839,7.17,3.744,11.333l-0.299,0.593l0.663,0.038c4.653,0.267,8.21,4.255,7.943,8.909
		C435.526,170.606,431.805,174.074,427.366,174.074z"/>
</g>
<path style="fill:#D2CFCE;" d="M256,315.64c-32.885,0-59.64-26.755-59.64-59.64s26.755-59.64,59.64-59.64s59.64,26.755,59.64,59.64
	S288.885,315.64,256,315.64z M256,213.24c-23.578,0-42.76,19.183-42.76,42.76c0,23.578,19.183,42.76,42.76,42.76
	c23.578,0,42.76-19.183,42.76-42.76C298.76,232.422,279.578,213.24,256,213.24z"/>
<path style="fill:#8C8484;" d="M256,89.226c-25.399,0-46.967,16.342-54.803,39.079l11.253,22.505h87.1l11.253-22.505
	C302.967,105.568,281.399,89.226,256,89.226z"/>
<path style="fill:#BCB6B8;" d="M255.997,66.158c-4.661,0-8.44,3.779-8.44,8.44v73.812h16.879V74.598
	C264.436,69.937,260.658,66.158,255.997,66.158z"/>
<g>
	<path style="fill:#8C8484;" d="M396.812,114.711c-2.33-4.036-7.493-5.419-11.528-3.089c-4.036,2.33-5.419,7.492-3.089,11.528
		c4.112,7.122,4.358,16.059,0.693,25.163c-3.952,9.823-11.851,18.534-22.242,24.533c-10.39,6-21.885,8.486-32.367,6.995
		c-9.627-1.366-17.19-5.973-21.328-12.981l-2.129-4.258l-15.097,7.548l2.251,4.501c0.075,0.151,0.155,0.299,0.24,0.446
		c6.761,11.711,18.727,19.33,33.691,21.454c2.76,0.392,5.563,0.586,8.389,0.586c11.71,0,23.8-3.329,34.79-9.675
		c13.644-7.877,24.107-19.544,29.461-32.85C404.19,140.593,403.574,126.422,396.812,114.711z"/>
	<path style="fill:#8C8484;" d="M207.178,162.604l-2.129,4.258c-4.139,7.008-11.702,11.614-21.328,12.981
		c-10.482,1.491-21.978-0.996-32.367-6.995c-10.391-5.999-18.289-14.712-22.242-24.533c-3.664-9.106-3.419-18.043,0.693-25.163
		c2.33-4.036,0.947-9.198-3.089-11.528c-4.035-2.33-9.198-0.947-11.528,3.089c-6.761,11.711-7.377,25.882-1.735,39.905
		c5.354,13.306,15.817,24.973,29.461,32.85c10.992,6.347,23.081,9.675,34.79,9.675c2.826,0,5.628-0.194,8.389-0.586
		c14.965-2.125,26.93-9.744,33.691-21.454c0.084-0.146,0.164-0.295,0.24-0.446l2.251-4.501L207.178,162.604z"/>
</g>
<polygon style="fill:#A8A2A2;" points="285.387,143.655 255.997,125.905 226.61,143.655 197.222,125.905 208.475,170.886 
	303.525,170.886 314.778,125.905 "/>
<path style="fill:#8C8484;" d="M111.57,339.387c12.7,21.996,37.636,32.504,61.244,27.921l13.863-20.998l-43.55-75.431l-25.117,1.508
	C102.239,290.541,98.87,317.391,111.57,339.387z"/>
<path style="fill:#BCB6B8;" d="M91.594,350.924c2.33,4.036,7.492,5.419,11.528,3.089l63.923-36.906l-8.44-14.617l-63.923,36.906
	C90.647,341.726,89.264,346.887,91.594,350.924z"/>
<g>
	<path style="fill:#8C8484;" d="M63.234,204.698c-2.33,4.036-0.947,9.199,3.089,11.528c4.036,2.33,9.198,0.947,11.528-3.089
		c4.112-7.122,11.728-11.803,21.445-13.183c10.482-1.489,21.977,0.996,32.367,6.995c10.391,5.998,18.291,14.711,22.241,24.533
		c3.63,9.02,3.422,17.873-0.577,24.961l-2.623,3.972l14.085,9.3l2.773-4.2c0.093-0.141,0.182-0.284,0.266-0.43
		c6.762-11.711,7.377-25.882,1.735-39.904c-1.041-2.587-2.274-5.111-3.688-7.557c-5.855-10.141-14.783-18.946-25.774-25.293
		c-13.644-7.878-28.978-11.105-43.179-9.089C81.959,185.367,69.995,192.987,63.234,204.698z"/>
	<path style="fill:#8C8484;" d="M199.528,344.979l4.752-0.285c8.138,0.08,15.909,4.327,21.906,11.98
		c6.532,8.333,10.126,19.531,10.125,31.528c0,11.998-3.595,23.195-10.125,31.529c-6.054,7.726-13.916,11.981-22.139,11.981
		c-4.661,0-8.44,3.779-8.44,8.44c-0.001,4.661,3.779,8.44,8.44,8.44c13.522,0,26.104-6.552,35.426-18.45
		c8.847-11.29,13.719-26.184,13.718-41.939c0-12.692-3.162-24.826-9.017-34.967c-1.412-2.446-2.982-4.777-4.701-6.972
		c-9.323-11.898-21.903-18.45-35.426-18.45c-0.169,0-0.338,0.004-0.505,0.016l-5.023,0.302L199.528,344.979z"/>
</g>
<polygon style="fill:#A8A2A2;" points="144.013,286.723 143.335,321.051 173.401,337.625 172.723,371.951 206.051,339.715 
	158.526,257.4 113.945,270.145 "/>
<path style="fill:#8C8484;" d="M400.43,339.387c12.7-21.996,9.331-48.845-6.442-67l-25.116-1.508l-43.549,75.431l13.863,20.998
	C362.794,371.89,387.73,361.383,400.43,339.387z"/>
<path style="fill:#BCB6B8;" d="M420.409,350.918c2.33-4.036,0.947-9.198-3.089-11.528l-63.923-36.906l-8.44,14.617l63.923,36.906
	C412.917,356.337,418.079,354.954,420.409,350.918z"/>
<g>
	<path style="fill:#8C8484;" d="M307.954,448.592c4.661,0,8.44-3.779,8.44-8.44s-3.779-8.44-8.44-8.44
		c-8.224,0-16.086-4.256-22.139-11.981c-6.53-8.334-10.126-19.53-10.125-31.529c-0.001-11.998,3.594-23.196,10.125-31.528
		c5.997-7.653,13.767-11.9,21.906-11.98l4.752,0.285l1.012-16.849l-5.023-0.302c-0.169-0.01-0.336-0.016-0.505-0.016
		c-13.522,0-26.104,6.552-35.426,18.45c-1.719,2.194-3.289,4.525-4.701,6.972c-5.855,10.141-9.017,22.275-9.017,34.967
		c0,15.755,4.871,30.649,13.718,41.939C281.85,442.039,294.432,448.592,307.954,448.592z"/>
	<path style="fill:#8C8484;" d="M361.294,260.417l-2.623-3.972c-4-7.088-4.207-15.941-0.577-24.961
		c3.95-9.823,11.851-18.536,22.241-24.533c10.391-5.999,21.885-8.483,32.367-6.995c9.718,1.38,17.334,6.061,21.445,13.183
		c2.33,4.036,7.492,5.42,11.528,3.089c4.036-2.329,5.42-7.492,3.089-11.528c-6.762-11.711-18.726-19.33-33.691-21.454
		c-14.201-2.017-29.536,1.212-43.179,9.089c-10.992,6.345-19.918,15.151-25.774,25.293c-1.412,2.446-2.646,4.971-3.688,7.557
		c-5.642,14.022-5.027,28.194,1.735,39.904c0.084,0.146,0.173,0.289,0.267,0.43l2.773,4.2L361.294,260.417z"/>
</g>
<polygon style="fill:#A8A2A2;" points="338.601,337.623 368.668,321.044 367.99,286.72 398.055,270.145 353.474,257.4 
	305.949,339.715 339.277,371.951 "/>
</svg>