<?xml version="1.0" encoding="iso-8859-1"?>
<!-- Uploaded to: SVG Repo, www.svgrepo.com, Generator: SVG Repo Mixer Tools -->
<svg height="800px" width="800px" version="1.1" id="Layer_1" xmlns="http://www.w3.org/2000/svg" xmlns:xlink="http://www.w3.org/1999/xlink" 
	 viewBox="0 0 512 512" xml:space="preserve">
<circle style="fill:#FFAD38;" cx="256" cy="256" r="256"/>
<circle style="fill:#CA7B0A;" cx="256" cy="256" r="195.235"/>
<g>
	<path style="fill:#FFAD38;" d="M100.149,256c0,39.125,14.419,74.879,38.23,102.247h15.376l43.014-43.013
		c-15.175-15.175-24.575-36.127-24.575-59.233c0-34.207,20.6-63.693,50.049-76.703v-75.471
		C152.399,119.252,100.149,181.519,100.149,256z"/>
	<path style="fill:#FFAD38;" d="M411.851,256c0,39.125-14.419,74.879-38.23,102.247h-15.376l-43.014-43.013
		c15.175-15.175,24.575-36.127,24.575-59.233c0-34.207-20.6-63.693-50.049-76.703v-75.471
		C359.601,119.252,411.851,181.519,411.851,256z"/>
	<path style="fill:#FFAD38;" d="M256,387.081c-22.268,0-44.265-5.687-63.614-16.446c-4.074-2.265-5.54-7.403-3.275-11.477
		c2.265-4.075,7.402-5.541,11.477-3.275c16.846,9.367,36.008,14.318,55.412,14.318c19.405,0,38.565-4.951,55.412-14.318
		c4.073-2.266,9.213-0.799,11.477,3.275c2.264,4.073,0.799,9.213-3.275,11.478C300.266,381.395,278.269,387.081,256,387.081z"/>
</g>
<circle style="fill:#FD9A0C;" cx="256" cy="256" r="50.052"/>
<path style="fill:#FFC066;" d="M267.935,256l29.421-29.421c3.296-3.296,3.296-8.64,0-11.935c-3.296-3.296-8.64-3.297-11.935,0
	L256,244.065l-29.421-29.421c-3.296-3.297-8.64-3.296-11.935,0c-3.296,3.296-3.296,8.64,0,11.935L244.065,256l-29.421,29.421
	c-3.296,3.296-3.296,8.64,0,11.935c3.296,3.296,8.64,3.297,11.935,0L256,267.935l29.421,29.421c3.296,3.297,8.64,3.296,11.935,0
	c3.296-3.296,3.296-8.64,0-11.935L267.935,256z"/>
<g>
	<path style="fill:#FD9A0C;" d="M253.163,102.759c-0.338-4.65-4.387-8.136-9.029-7.806c-40.594,2.95-78.3,21.011-106.173,50.857
		C109.949,175.804,94.523,214.938,94.523,256c0,43.131,16.796,83.68,47.293,114.178l11.935-11.935
		c-27.308-27.31-42.349-63.621-42.349-102.244c0-75.407,58.841-138.753,133.955-144.212
		C250.007,111.449,253.502,107.407,253.163,102.759z"/>
	<path style="fill:#FD9A0C;" d="M142.347,264.44c-4.661,0-8.44-3.779-8.44-8.44c0-57.748,41.003-108.052,97.496-119.612
		c4.563-0.934,9.026,2.01,9.96,6.576c0.935,4.566-2.01,9.026-6.576,9.96c-48.674,9.96-84.001,53.31-84.001,103.076
		C150.787,260.661,147.008,264.44,142.347,264.44z"/>
	<path style="fill:#FD9A0C;" d="M258.837,102.759c0.338-4.65,4.387-8.136,9.029-7.806c40.594,2.95,78.3,21.011,106.173,50.857
		c28.011,29.994,43.438,69.128,43.438,110.19c0,43.131-16.796,83.68-47.293,114.178l-11.935-11.935
		c27.308-27.31,42.349-63.621,42.349-102.244c0-75.407-58.841-138.753-133.955-144.212
		C261.993,111.449,258.498,107.407,258.837,102.759z"/>
	<path style="fill:#FD9A0C;" d="M369.653,264.44c4.661,0,8.44-3.779,8.44-8.44c0-57.748-41.003-108.052-97.496-119.612
		c-4.563-0.934-9.026,2.01-9.96,6.576c-0.935,4.566,2.01,9.026,6.576,9.96c48.674,9.96,84.001,53.31,84.001,103.076
		C361.213,260.661,364.992,264.44,369.653,264.44z"/>
</g>
</svg>